<svg width="39" height="35" viewBox="0 0 39 35" fill="none" xmlns="http://www.w3.org/2000/svg">
<path d="M19.8315 35C17.6999 35 15.8433 34.3124 14.5025 33.0403L14.4681 33.0059H3.74116C2.09086 33.0059 0.75 31.665 0.75 30.0147V2.99116C0.75 1.34086 2.09086 0 3.74116 0H13.9867C16.2215 0 18.3188 0.997053 19.7284 2.75049L19.8659 2.88802L20.0034 2.75049C21.4131 0.997053 23.5103 0 25.7451 0H35.9907C37.641 0 38.9818 1.34086 38.9818 2.99116V30.0491C38.9818 31.6994 37.641 33.0403 35.9907 33.0403H25.195L25.1606 33.0747C23.8197 34.3468 21.9632 35 19.8315 35ZM25.6763 1.78782C22.582 2.16601 20.9317 3.50688 20.9317 5.63851V33.109L21.1036 33.0747C22.0319 32.8684 22.8571 32.4214 23.4759 31.7338L23.5791 31.5963C23.751 31.3212 23.9916 31.1493 24.0948 31.1493H37.0565L36.9877 1.78782H25.6763ZM16.1871 31.7682C16.806 32.4214 17.6311 32.8684 18.6626 33.0747L18.8345 33.109V5.63851C18.8345 2.95678 16.2215 1.92534 13.9867 1.8222H2.5722V31.1837H15.5339C15.6026 31.1837 15.9465 31.4244 16.084 31.6307L16.1871 31.7682Z" fill="black"/>
</svg>
